<svg xmlns="http://www.w3.org/2000/svg" version="1.1" xmlns:xlink="http://www.w3.org/1999/xlink" xmlns:svgjs="http://svgjs.com/svgjs" width="268.7" height="107.5"><svg version="1.1" id="SvgjsSvg1000" xmlns="http://www.w3.org/2000/svg" xmlns:xlink="http://www.w3.org/1999/xlink" x="0px" y="0px" viewBox="0 0 268.7 107.5" style="enable-background:new 0 0 268.7 107.5;" xml:space="preserve">
<style type="text/css">
	.st0{fill:none;stroke:#000000;stroke-width:14;stroke-linecap:round;stroke-linejoin:round;stroke-miterlimit:10;}
	.st1{fill:#FFFFFF;}
	.st2{fill:#FFD700;}
</style>
<g>
	<g>
		<g>
			<path class="st0" d="M38.7,63.9h-6.7V38.8h14.8v5.4h-8.2V49h7.5v5.4h-7.5V63.9z"></path>
			<path class="st0" d="M50.5,39.6c0-1,0.3-1.8,0.8-2.2s1.5-0.7,2.7-0.7c1.2,0,2.2,0.3,2.7,0.8c0.6,0.5,0.9,1.2,0.9,2.2
				c0,2-1.2,3-3.6,3C51.7,42.6,50.5,41.6,50.5,39.6z M57.4,63.9h-6.7V44.5h6.7V63.9z"></path>
			<path class="st0" d="M74.3,63.9V53.3c0-1.3-0.2-2.3-0.6-2.9s-1-1-1.8-1c-1.1,0-2,0.5-2.5,1.4c-0.5,0.9-0.8,2.5-0.8,4.7v8.5h-6.7
				V44.5h5.1l0.8,2.4h0.4c0.6-0.9,1.4-1.6,2.4-2.1c1-0.5,2.2-0.7,3.5-0.7c2.2,0,3.8,0.6,5,1.9c1.2,1.2,1.8,3,1.8,5.3v12.7H74.3z"></path>
			<path class="st0" d="M91.7,64.3c-1.4,0-2.6-0.4-3.6-1.2c-1-0.8-1.8-2-2.4-3.5s-0.8-3.3-0.8-5.4c0-3.2,0.6-5.6,1.9-7.4
				s3-2.7,5.2-2.7c1.1,0,2,0.2,2.9,0.7s1.6,1.2,2.2,2.2h0.1c-0.2-1.5-0.3-3-0.3-4.6v-5.2h6.8v26.7h-5.1l-1.4-2.5h-0.3
				C95.7,63.3,94,64.3,91.7,64.3z M94.4,59c1.1,0,1.8-0.3,2.3-1c0.4-0.7,0.7-1.7,0.7-3.1v-0.5c0-1.7-0.2-2.9-0.7-3.7
				c-0.5-0.7-1.3-1.1-2.3-1.1c-0.9,0-1.6,0.4-2.1,1.2c-0.5,0.8-0.7,2-0.7,3.5c0,1.5,0.2,2.7,0.7,3.5C92.8,58.6,93.5,59,94.4,59z"></path>
		</g>
		<g>
			<path class="st0" d="M120.7,63.9l-5.1-18.1h-0.2c0.2,3.1,0.4,5.5,0.4,7.2v10.9h-6V38.8h9l5.2,17.8h0.1l5.1-17.8h9v25.1h-6.2v-11
				c0-0.6,0-1.2,0-1.9c0-0.7,0.1-2.4,0.2-5.1h-0.2l-5.1,18H120.7z"></path>
			<path class="st0" d="M141,44.5h7.1l3.3,11.2c0.2,0.6,0.3,1.3,0.3,2.1h0.1c0.1-0.8,0.2-1.5,0.4-2.1l3.4-11.2h6.9l-7.7,20.7
				c-1,2.6-2.2,4.5-3.6,5.6c-1.4,1.1-3.3,1.6-5.6,1.6c-0.9,0-1.8-0.1-2.7-0.3v-5.3c0.6,0.1,1.3,0.2,2.1,0.2c0.6,0,1.1-0.1,1.6-0.3
				c0.4-0.2,0.8-0.6,1.2-1c0.3-0.4,0.7-1.1,1.1-2.1L141,44.5z"></path>
			<path class="st0" d="M141,44.5h7.1l3.3,11.2c0.2,0.6,0.3,1.3,0.3,2.1h0.1c0.1-0.8,0.2-1.5,0.4-2.1l3.4-11.2h6.9l-7.7,20.7
				c-1,2.6-2.2,4.5-3.6,5.6c-1.4,1.1-3.3,1.6-5.6,1.6c-0.9,0-1.8-0.1-2.7-0.3v-5.3c0.6,0.1,1.3,0.2,2.1,0.2c0.6,0,1.1-0.1,1.6-0.3
				c0.4-0.2,0.8-0.6,1.2-1c0.3-0.4,0.7-1.1,1.1-2.1L141,44.5z"></path>
		</g>
		<g>
			<g>
				<path class="st0" d="M172.3,63.9h-6.7V38.8h14.8v5.4h-8.2V49h7.5v5.4h-7.5V63.9z"></path>
				<path class="st0" d="M183.1,39.6c0-1,0.3-1.8,0.8-2.2s1.5-0.7,2.7-0.7c1.2,0,2.2,0.3,2.7,0.8c0.6,0.5,0.9,1.2,0.9,2.2
					c0,2-1.2,3-3.6,3C184.3,42.6,183.1,41.6,183.1,39.6z M190,63.9h-6.7V44.5h6.7V63.9z"></path>
				<path class="st0" d="M201.3,63.9h-6.7V37.2h6.7V63.9z"></path>
				<path class="st0" d="M229.9,63.9V53.3c0-1.3-0.2-2.3-0.5-3c-0.4-0.7-0.9-1-1.7-1c-1,0-1.8,0.4-2.3,1.3s-0.7,2.3-0.7,4.1v9.1
					h-6.7V53.3c0-1.3-0.2-2.3-0.5-3c-0.3-0.7-0.9-1-1.7-1c-1.1,0-1.8,0.5-2.3,1.4c-0.5,0.9-0.7,2.5-0.7,4.6v8.5H206V44.5h5.1
					l0.8,2.4h0.4c0.5-0.9,1.3-1.6,2.2-2c1-0.5,2.1-0.7,3.3-0.7c2.8,0,4.8,0.9,5.9,2.6h0.5c0.5-0.8,1.3-1.4,2.3-1.9s2.1-0.7,3.2-0.7
					c2.3,0,4,0.6,5.1,1.8c1.1,1.2,1.6,3,1.6,5.4v12.7H229.9z"></path>
			</g>
		</g>
	</g>
	<g>
		<g>
			<path class="st1" d="M38.7,63.9h-6.7V38.8h14.8v5.4h-8.2V49h7.5v5.4h-7.5V63.9z"></path>
			<path class="st1" d="M57.4,63.9h-6.7V44.5h6.7V63.9z"></path>
			<path class="st1" d="M74.3,63.9V53.3c0-1.3-0.2-2.3-0.6-2.9s-1-1-1.8-1c-1.1,0-2,0.5-2.5,1.4c-0.5,0.9-0.8,2.5-0.8,4.7v8.5h-6.7
				V44.5h5.1l0.8,2.4h0.4c0.6-0.9,1.4-1.6,2.4-2.1c1-0.5,2.2-0.7,3.5-0.7c2.2,0,3.8,0.6,5,1.9c1.2,1.2,1.8,3,1.8,5.3v12.7H74.3z"></path>
			<path class="st1" d="M91.7,64.3c-1.4,0-2.6-0.4-3.6-1.2c-1-0.8-1.8-2-2.4-3.5s-0.8-3.3-0.8-5.4c0-3.2,0.6-5.6,1.9-7.4
				s3-2.7,5.2-2.7c1.1,0,2,0.2,2.9,0.7s1.6,1.2,2.2,2.2h0.1c-0.2-1.5-0.3-3-0.3-4.6v-5.2h6.8v26.7h-5.1l-1.4-2.5h-0.3
				C95.7,63.3,94,64.3,91.7,64.3z M94.4,59c1.1,0,1.8-0.3,2.3-1c0.4-0.7,0.7-1.7,0.7-3.1v-0.5c0-1.7-0.2-2.9-0.7-3.7
				c-0.5-0.7-1.3-1.1-2.3-1.1c-0.9,0-1.6,0.4-2.1,1.2c-0.5,0.8-0.7,2-0.7,3.5c0,1.5,0.2,2.7,0.7,3.5C92.8,58.6,93.5,59,94.4,59z"></path>
		</g>
		<g>
			<path class="st2" d="M120.7,63.9l-5.1-18.1h-0.2c0.2,3.1,0.4,5.5,0.4,7.2v10.9h-6V38.8h9l5.2,17.8h0.1l5.1-17.8h9v25.1h-6.2v-11
				c0-0.6,0-1.2,0-1.9c0-0.7,0.1-2.4,0.2-5.1h-0.2l-5.1,18H120.7z"></path>
			<path class="st2" d="M141,44.5h7.1l3.3,11.2c0.2,0.6,0.3,1.3,0.3,2.1h0.1c0.1-0.8,0.2-1.5,0.4-2.1l3.4-11.2h6.9l-7.7,20.7
				c-1,2.6-2.2,4.5-3.6,5.6c-1.4,1.1-3.3,1.6-5.6,1.6c-0.9,0-1.8-0.1-2.7-0.3v-5.3c0.6,0.1,1.3,0.2,2.1,0.2c0.6,0,1.1-0.1,1.6-0.3
				c0.4-0.2,0.8-0.6,1.2-1c0.3-0.4,0.7-1.1,1.1-2.1L141,44.5z"></path>
			<path class="st2" d="M141,44.5h7.1l3.3,11.2c0.2,0.6,0.3,1.3,0.3,2.1h0.1c0.1-0.8,0.2-1.5,0.4-2.1l3.4-11.2h6.9l-7.7,20.7
				c-1,2.6-2.2,4.5-3.6,5.6c-1.4,1.1-3.3,1.6-5.6,1.6c-0.9,0-1.8-0.1-2.7-0.3v-5.3c0.6,0.1,1.3,0.2,2.1,0.2c0.6,0,1.1-0.1,1.6-0.3
				c0.4-0.2,0.8-0.6,1.2-1c0.3-0.4,0.7-1.1,1.1-2.1L141,44.5z"></path>
		</g>
		<g>
			<g>
				<path class="st2" d="M172.3,63.9h-6.7V38.8h14.8v5.4h-8.2V49h7.5v5.4h-7.5V63.9z"></path>
				<path class="st2" d="M190,63.9h-6.7V44.5h6.7V63.9z"></path>
				<path class="st2" d="M201.3,63.9h-6.7V37.2h6.7V63.9z"></path>
				<path class="st2" d="M229.9,63.9V53.3c0-1.3-0.2-2.3-0.5-3c-0.4-0.7-0.9-1-1.7-1c-1,0-1.8,0.4-2.3,1.3s-0.7,2.3-0.7,4.1v9.1
					h-6.7V53.3c0-1.3-0.2-2.3-0.5-3c-0.3-0.7-0.9-1-1.7-1c-1.1,0-1.8,0.5-2.3,1.4c-0.5,0.9-0.7,2.5-0.7,4.6v8.5H206V44.5h5.1
					l0.8,2.4h0.4c0.5-0.9,1.3-1.6,2.2-2c1-0.5,2.1-0.7,3.3-0.7c2.8,0,4.8,0.9,5.9,2.6h0.5c0.5-0.8,1.3-1.4,2.3-1.9s2.1-0.7,3.2-0.7
					c2.3,0,4,0.6,5.1,1.8c1.1,1.2,1.6,3,1.6,5.4v12.7H229.9z"></path>
			</g>
		</g>
	</g>
	<g>
		<circle class="st2" cx="54.1" cy="39.1" r="3.9"></circle>
	</g>
	<g>
		<g>
			<circle class="st1" cx="186.6" cy="39.1" r="3.9"></circle>
		</g>
	</g>
</g>
</svg><style>@media (prefers-color-scheme: light) { :root { filter: none; } }
</style></svg>